<?xml version="1.0" encoding="UTF-8" standalone="no"?>
<!-- Created with Inkscape (http://www.inkscape.org/) -->

<svg
   version="1.1"
   id="svg1"
   width="327.67999"
   height="327.67999"
   viewBox="0 0 327.67999 327.67999"
   sodipodi:docname="logo_concept_15_1777137953387.svg"
   inkscape:version="1.4.3 (0d15f75, 2025-12-25)"
   xmlns:inkscape="http://www.inkscape.org/namespaces/inkscape"
   xmlns:sodipodi="http://sodipodi.sourceforge.net/DTD/sodipodi-0.dtd"
   xmlns="http://www.w3.org/2000/svg"
   xmlns:svg="http://www.w3.org/2000/svg">
  <defs
     id="defs1" />
  <sodipodi:namedview
     id="namedview1"
     pagecolor="#ada791"
     bordercolor="#000000"
     borderopacity="0.25"
     inkscape:showpageshadow="2"
     inkscape:pageopacity="0.0"
     inkscape:pagecheckerboard="true"
     inkscape:deskcolor="#d1d1d1"
     showgrid="false"
     inkscape:zoom="2.1344983"
     inkscape:cx="52.2371"
     inkscape:cy="124.3852"
     inkscape:window-width="1920"
     inkscape:window-height="1009"
     inkscape:window-x="-8"
     inkscape:window-y="-8"
     inkscape:window-maximized="1"
     inkscape:current-layer="g1" />
  <g
     inkscape:groupmode="layer"
     inkscape:label="Image"
     id="g1">
    <path
       style="fill:#ffffff"
       d="m 102.20097,85.273951 c -0.86754,-1.804 -1.57942,-3.453528 -1.58195,-3.665619 l -0.005,-0.385619 2.48,-1.871483 c 10.6316,-8.022926 20.5434,-13.267462 32.08,-16.974186 6.78387,-2.179663 13.22361,-3.545598 21.6,-4.581581 l 3.2,-0.395772 7.52,-0.0027 7.52,-0.0027 3.2,0.382964 c 21.14814,2.530932 39.54947,10.113959 55.28619,22.782945 l 0.24619,0.198199 -1.63571,3.497808 c -0.89964,1.923794 -1.67374,3.53712 -1.72022,3.585169 -0.0465,0.04805 -2.17432,-1.483233 -4.72854,-3.402848 C 211.36202,73.691106 194.71266,67.26914 176.61442,65.519774 l -3.2,-0.309311 -5.6,-0.008 -5.6,-0.008 -3.52,0.324832 c -19.03003,1.756124 -37.2825,9.07682 -51.77346,20.765282 -1.54741,1.248143 -2.88753,2.269351 -2.97805,2.269351 -0.0905,0 -0.8744,-1.476 -1.74194,-3.28 z"
       id="path1076938" />
    <path
       style="fill:#ff2a2a"
       d="m 221.89442,108.92797 c 0,-0.0649 0.72,-0.56553 1.6,-1.11257 l 1.6,-0.99461 v -0.97322 -0.97322 h 7.05765 7.05765 l -1.05765,2 -1.05765,2 -7.6,0.0858 c -4.18,0.0472 -7.6,0.0327 -7.6,-0.0322 z"
       id="path1076937" />
    <path
       style="fill:#ff2a2a"
       d="m 107.65442,106.93408 v -2.10028 l 1.01001,0.10028 1.01,0.10027 0.11261,0.8 0.1126,0.8 0.59298,0.48 c 0.32614,0.264 1.00896,0.796 1.51739,1.18222 l 0.92441,0.70222 -2.64,0.0178 -2.64,0.0178 z"
       id="path1076936" />
    <path
       style="fill:#ff2a2a"
       d="m 172.13442,106.94108 6.08,-5.89989 5.13002,-0.004 5.13001,-0.004 1.89997,1.92 1.89997,1.92 h 8.76425 8.76425 l -0.16597,0.4 c -0.0913,0.22 -0.48589,1.156 -0.8769,2.08 l -0.71093,1.68 h -7.88735 -7.88735 l -1.89997,1.92 -1.89997,1.92 -11.21001,-0.0165 -11.21002,-0.0165 z"
       id="path1076935" />
    <path
       style="fill:#ff2a2a"
       d="m 144.61442,110.95395 -1.89996,-1.92 h -7.90656 -7.90656 l -0.82346,-1.79867 c -0.4529,-0.98927 -0.82346,-1.92527 -0.82346,-2.08 v -0.28133 h 8.73002 8.73002 l 1.89996,-1.92 1.89997,-1.92 13.45001,0.0116 13.45002,0.0116 -6.08,5.8953 -6.08,5.89529 -7.37002,0.0131 -7.37001,0.0131 z"
       id="path1076934" />
    <path
       style="fill:#ffffff"
       d="m 258.05442,123.56956 c 0,-0.10142 0.864,-1.80693 1.92,-3.79003 l 1.92,-3.60563 v -9.05936 -9.059362 l -2.06207,-3.950614 -2.06207,-3.950613 h 1.71434 1.71435 l 2.74772,5.421887 2.74773,5.421892 0.0114,6.01811 0.0114,6.01811 -2.65136,5.34245 -2.65136,5.34245 -1.68,0.0175 c -0.924,0.01 -1.68,-0.0654 -1.68,-0.16684 z"
       id="path1076933" />
    <path
       style="fill:#ffffff"
       d="m 70.402136,118.48134 -2.747713,-5.27261 v -6.13494 -6.13494 l 2.791311,-5.392451 c 1.535221,-2.965846 2.90242,-5.392448 3.03822,-5.392448 0.135801,0 1.471711,2.4464 2.968689,5.436445 l 2.72178,5.436444 v 6.09095 6.09094 l -2.747713,5.27261 c -1.511242,2.89994 -2.866771,5.27261 -3.012287,5.27261 -0.145516,0 -1.501045,-2.37267 -3.012287,-5.27261 z"
       id="path1076932" />
    <path
       style="fill:#ffffff"
       d="m 77.254423,123.92257 c 0,-0.0833 1.08,-2.38644 2.4,-5.11817 l 2.4,-4.96679 v -6.7475 -6.74749 l -2.4,-4.981965 c -1.32,-2.740079 -2.4,-5.032529 -2.4,-5.094333 0,-0.0618 1.446442,-0.112371 3.214315,-0.112371 h 3.214314 l 2.385686,4.871554 2.385685,4.871554 v 7.216891 7.21689 l -2.385685,4.87156 -2.385686,4.87155 h -3.214314 c -1.767873,0 -3.214315,-0.0681 -3.214315,-0.15138 z"
       id="path1076931" />
    <path
       style="fill:#ffffff"
       d="m 245.25442,130.59167 c 0,-0.12316 1.67552,-3.47603 3.72339,-7.45082 l 3.72339,-7.2269 -0.0438,-8.81931 -0.0438,-8.819304 -3.67954,-7.246537 c -2.02375,-3.985596 -3.67955,-7.396907 -3.67955,-7.580693 v -0.334155 l 3.28,0.0028 3.28,0.0028 4.08,7.897915 4.08,7.897916 -0.006,8.179268 -0.006,8.17927 -3.96375,7.68 -3.96376,7.68 -3.39045,0.0908 -3.39045,0.0908 z"
       id="path1076930" />
    <path
       style="fill:#ffffff"
       d="m 234.16977,126.40651 c -1.16058,-2.42691 -2.72516,-5.71992 -3.47685,-7.31781 l -1.36672,-2.90526 -0.11589,-2.53474 -0.11589,-2.53475 4.5075,-0.0885 4.50749,-0.0885 1.45969,-2.63154 c 1.90478,-3.43392 2.48532,-4.60552 2.48532,-5.01564 v -0.33589 h -6.56 -6.56 v -2.10044 -2.100448 l 2.92632,-6.139556 c 1.60947,-3.376755 3.26366,-6.895555 3.67596,-7.819555 l 0.74965,-1.68 h 2.69726 2.69727 l 4.02677,7.857021 4.02677,7.857021 -0.006,8.222977 -0.006,8.22298 -3.93496,7.68 -3.93495,7.68 -2.78586,0.0926 -2.78585,0.0926 z"
       id="path1076929" />
    <path
       style="fill:#ffffff"
       d="m 81.094423,128.87395 -0.969213,-1.92 h 2.557229 2.55723 l 0.447052,-0.72 c 0.245879,-0.396 1.617198,-3.01376 3.047377,-5.81724 l 2.600325,-5.09725 v -8.10568 -8.105685 l -2.855996,-5.917072 -2.855996,-5.917072 h -2.744004 c -1.509202,0 -2.744004,-0.07611 -2.744004,-0.169125 0,-0.09302 0.435361,-1.031572 0.96747,-2.085673 l 0.967469,-1.916546 7.733639,0.08567 7.733638,0.08567 3.618451,7.68 3.61845,7.68 -0.0796,8.800003 -0.0796,8.8 -3.5771,7.28 -3.577093,7.28 h -7.698296 -7.698295 z"
       id="path1076928" />
    <path
       style="fill:#ffffff"
       d="m 191.17442,147.32702 c 0,-0.0588 1.296,-3.01885 2.88,-6.57785 1.584,-3.559 2.88,-6.6036 2.88,-6.76577 0,-0.22939 9.48277,-10.66577 17.06069,-18.77634 l 0.95945,-1.0269 -1.57007,-1.79261 c -0.86354,-0.98594 -1.8436,-2.13501 -2.17791,-2.5535 l -0.60784,-0.76088 0.66592,-1.53961 c 0.36626,-0.84679 1.16685,-2.6352 1.77909,-3.97425 l 1.11317,-2.43464 4.42875,1.19179 4.42875,1.19179 v 1.23831 1.2383 l -1.5486,1.01331 -1.5486,1.0133 -2.34682,-1.06948 -2.34682,-1.06948 -0.34075,0.97748 c -0.18741,0.53761 -0.2817,1.06894 -0.20953,1.18072 0.0722,0.11178 1.86658,0.92324 3.98759,1.80324 l 3.85637,1.6 0.009,0.33876 c 0.0102,0.40133 -9.80773,21.61235 -10.15381,21.93675 -0.55912,0.52409 -20.69245,13.72449 -20.93268,13.72449 -0.14571,0 -0.26493,-0.0481 -0.26493,-0.10693 z"
       id="path1076927" />
    <path
       style="fill:#ffffff"
       d="m 134.61905,141.25788 -12.21418,-7.42393 -2.93928,-6.24 c -1.61661,-3.432 -3.95168,-8.36858 -5.18904,-10.97018 l -2.24976,-4.73019 0.29382,-0.2754 c 0.1616,-0.15147 2.04623,-1.02262 4.18808,-1.93589 l 3.89427,-1.66047 -0.32558,-0.93394 -0.32557,-0.93393 -0.36869,0.009 c -0.20278,0.005 -1.29215,0.42252 -2.42081,0.92798 l -2.05211,0.91902 -1.54214,-1.00798 -1.54214,-1.00798 -0.006,-1.28507 -0.006,-1.28506 4.33009,-1.08885 4.33009,-1.08884 0.28066,0.29391 c 0.15436,0.16165 1.01803,1.93615 1.91927,3.94333 l 1.6386,3.64942 -0.58026,0.67058 c -0.31914,0.36882 -1.25935,1.42041 -2.08935,2.33687 -0.83,0.91646 -1.5091,1.81558 -1.5091,1.99805 0,0.18247 4.37243,4.9845 9.71651,10.67118 l 9.71652,10.33942 0.79479,1.26253 c 1.23659,1.96434 6.68673,12.05464 6.57273,12.16865 -0.056,0.056 -5.59812,-3.23903 -12.31592,-7.32219 z"
       id="path1076926" />
    <path
       style="fill:#ffffff"
       d="m 170.42952,151.3882 -5.19991,-3.07874 -2.0676,-3.50445 -2.06759,-3.50445 v -5.23323 -5.23324 l 4.08,-2.23328 c 2.244,-1.2283 4.46745,-2.40855 4.94099,-2.62277 l 0.861,-0.3895 4.579,2.53404 4.57901,2.53404 0.20612,2.86867 c 0.11336,1.57776 0.22136,5.07591 0.24,7.77367 l 0.0339,4.90501 -2.29949,3.89499 c -1.26472,2.14224 -2.38634,4.00141 -2.49249,4.13148 l -0.193,0.23649 z"
       id="path1076925" />
    <path
       style="fill:#ffffff"
       d="m 189.62396,156.95395 c 0.12076,-1.452 0.23102,-3.2271 0.24502,-3.94466 l 0.0254,-1.30467 8.13347,-5.49533 c 4.4734,-3.02244 8.22347,-5.49534 8.33349,-5.49534 0.21366,0 -0.12108,0.59599 -4.18731,7.45537 l -2.61743,4.41537 -1.71111,1.20803 c -0.94111,0.66442 -3.132,2.24151 -4.86865,3.50463 -1.73664,1.26313 -3.2509,2.2966 -3.36501,2.2966 h -0.20748 z"
       id="path1076924" />
    <path
       style="fill:#ffffff"
       d="m 142.95746,156.81904 -6.77696,-3.31118 -3.84063,-6.39696 c -2.11235,-3.51832 -3.77521,-6.39695 -3.69524,-6.39695 0.1291,0 10.73993,6.54199 17.05247,10.51352 l 2.36269,1.48648 0.91075,3.52 c 0.50091,1.936 0.8777,3.60466 0.83731,3.70814 -0.0404,0.10348 -3.12306,-1.3019 -6.85039,-3.12305 z"
       id="path1076923" />
    <path
       style="fill:#ffffff"
       d="m 149.76275,179.51395 c -1.82176,-6.69245 -4.91724,-18.80505 -4.82974,-18.89874 0.0895,-0.0959 7.11369,7.05257 10.83298,11.02463 l 1.84079,1.9659 -3.29618,4.50143 c -1.8129,2.47579 -3.38671,4.50714 -3.49737,4.51411 -0.11065,0.007 -0.58337,-1.39133 -1.05048,-3.10733 z"
       id="path1076922" />
    <path
       style="fill:#ffffff"
       d="m 165.54259,211.83395 c -0.54337,-1.42317 -5.40817,-18.05324 -5.40817,-18.48756 v -0.3969 l -3.73384,-3.09895 -3.73384,-3.09895 -0.79499,0.19953 -0.79498,0.19953 0.58294,-0.89835 c 0.32061,-0.49409 2.33019,-3.27435 4.46573,-6.17835 2.13554,-2.904 3.98618,-5.45109 4.11254,-5.66021 l 0.22975,-0.3802 -3.71439,-8.4198 c -2.04292,-4.63088 -4.55732,-10.29179 -5.58757,-12.57979 -2.7915,-6.19942 -4.14813,-9.44 -3.95196,-9.44 0.0963,0 2.55998,0.94279 5.47481,2.09508 l 5.29969,2.09508 6.75306,6.49975 c 3.71418,3.57487 7.28474,6.9597 7.93458,7.52185 l 1.18153,1.0221 0.45992,-0.73693 c 1.12711,-1.80599 6.65351,-10.9009 8.05013,-13.24828 l 1.54178,-2.59135 2.99679,-1.48865 c 1.64823,-0.81876 3.04696,-1.48865 3.10828,-1.48865 0.0613,0 -0.58759,1.98 -1.44203,4.4 l -1.55352,4.4 -0.002,11.32976 -0.002,11.32976 -6.28801,11.39024 c -6.86393,12.43347 -10.72016,19.46113 -13.0542,23.79024 -0.83029,1.54 -1.57352,2.8 -1.65162,2.8 -0.0781,0 -0.2932,-0.396 -0.478,-0.88 z"
       id="path1076921" />
    <path
       style="fill:#ffffff"
       d="m 169.07338,212.52026 c 0.40525,-0.68547 3.17488,-5.65819 6.15474,-11.05048 l 5.41792,-9.80416 8.38419,-0.21779 c 4.6113,-0.11979 11.33619,-0.17191 14.94419,-0.11584 l 6.56,0.10196 -4.48,2.43958 c -4.84002,2.63563 -36.8517,19.5588 -37.39054,19.76673 l -0.32732,0.12631 z"
       id="path1076920" />
    <path
       style="fill:#ffffff"
       d="m 152.15864,217.91724 c 0.42668,-0.48219 1.71178,-1.88903 2.85578,-3.1263 l 2.08,-2.24959 1.08005,-5.69766 1.08005,-5.69765 0.23159,0.26396 c 0.32712,0.37282 4.23754,13.26139 4.07335,13.42558 -0.18813,0.18813 -11.49476,3.95837 -11.87082,3.95837 h -0.30578 z"
       id="path1076919" />
    <path
       style="fill:#ffffff"
       d="m 135.48952,231.91395 c -0.004,-0.264 0.80639,-5.38878 1.80149,-11.3884 l 1.80928,-10.9084 4.56137,-6.3716 c 2.50875,-3.50438 4.51634,-6.42069 4.46131,-6.48069 -0.055,-0.06 -1.97848,1.488 -4.27434,3.44 -2.29585,1.952 -4.23367,3.54909 -4.30627,3.54909 -0.0726,0 0.51318,-2.052 1.30171,-4.56 l 1.43371,-4.56 0.36832,-0.34052 c 0.20258,-0.18729 2.4058,-1.32385 4.89605,-2.52568 l 4.52773,-2.18515 2.83227,2.32821 c 1.55775,1.28052 2.87818,2.52168 2.93428,2.75813 0.0561,0.23646 -0.48678,3.20532 -1.20641,6.59747 -0.71963,3.39214 -1.48553,7.05384 -1.70201,8.1371 l -0.39359,1.96956 -4,4.42513 c -2.2,2.43382 -5.656,6.22954 -7.68,8.43494 -2.024,2.20539 -4.50735,4.94378 -5.51856,6.08531 l -1.83856,2.0755 z"
       id="path1076918" />
    <path
       style="fill:#ffffff"
       d="m 182.57189,233.11395 c 0.53976,-1.452 1.50814,-4.08 2.15195,-5.84 l 1.17058,-3.2 0.18133,3.68 0.18133,3.68 -2.09275,2.16 c -1.15101,1.188 -2.20098,2.16 -2.33328,2.16 h -0.24053 z"
       id="path1076917" />
    <path
       style="fill:#ffffff"
       d="m 180.3183,240.63395 c 0.0131,-0.132 1.27313,-1.35925 2.8,-2.72723 1.52687,-1.36797 3.45969,-3.11596 4.29516,-3.88442 l 1.51903,-1.39719 -0.15338,-2.83558 c -0.0844,-1.55957 -0.22768,-6.45066 -0.31849,-10.8691 l -0.16509,-8.03351 5.49981,-4.60649 c 3.0249,-2.53356 8.08013,-6.81099 11.23386,-9.5054 3.15373,-2.6944 5.77396,-4.8544 5.82274,-4.8 0.0488,0.0544 -4.28852,8.94591 -9.63843,19.7589 l -9.72712,19.65999 0.24402,0.20365 c 0.1342,0.11201 3.37601,2.18984 7.20401,4.61741 3.828,2.42758 6.96,4.46894 6.96,4.53637 0,0.0674 -5.76,0.1226 -12.8,0.1226 h -12.8 z"
       id="path1076916" />
    <path
       style="fill:#ffffff"
       d="m 129.62652,242.33715 c 3.91255,-4.30823 13.71017,-14.84283 13.75916,-14.79414 0.0282,0.028 -0.75858,3.83094 -1.74839,8.45094 l -1.79965,8.4 h -6.03951 -6.03951 z"
       id="path1076915" />
    <path
       style="fill:#ffffff"
       d="m 160.93442,269.34541 c -2.288,-0.14943 -6.176,-0.56671 -8.64,-0.92729 l -4.48,-0.65561 -4.56099,-1.12008 c -15.99602,-3.92827 -29.90232,-10.90949 -42.95901,-21.56621 l -3.359997,-2.74239 -4.32,-4.32994 -4.32,-4.32994 -2.58235,-3.21904 C 78.075066,220.93498 72.62863,211.60909 68.457153,200.90947 L 66.67834,196.3469 65.442072,191.97043 C 63.248457,184.20487 62.10057,177.44357 61.56718,169.14647 l -0.33638,-5.23252 0.187668,-3.36 c 0.681178,-12.19578 2.285934,-20.88307 5.77097,-31.24097 0.821459,-2.44147 1.606473,-4.64515 1.744474,-4.89707 l 0.250911,-0.45803 0.840191,1.65803 0.840191,1.65804 h 2.554609 2.554609 v 0.2819 c 0,0.15505 -0.359938,1.23817 -0.799862,2.40694 -2.1744,5.77685 -4.118894,13.7837 -5.175493,21.31116 l -0.561464,4 -0.0052,8.48 -0.0052,8.48 0.563149,3.68 c 1.886006,12.32446 4.767414,21.43872 10.032231,31.73321 l 2.455571,4.80146 2.766813,4.21267 2.766813,4.21266 3.229993,4 3.229993,4 4.431288,4.35225 4.431285,4.35226 3.36,2.6652 c 1.848,1.46585 5.304,3.94608 7.68,5.51161 l 4.32,2.84641 5.76,2.83622 5.76,2.83622 3.04,1.11487 c 1.672,0.61318 4.76144,1.63653 6.86542,2.27411 l 3.82542,1.15924 4.65458,0.92852 c 2.56002,0.51069 6.16658,1.11409 8.01458,1.3409 l 3.36,0.41237 7.52,0.005 7.52,0.005 3.36,-0.41728 c 11.9216,-1.48056 22.9802,-4.88383 33.69355,-10.36914 l 4.54645,-2.32782 4.3682,-2.91149 c 5.48811,-3.65793 8.79569,-6.24538 13.10992,-10.2556 13.16333,-12.23577 22.49481,-27.12973 27.63243,-44.10409 l 1.15784,-3.82542 0.93106,-4.65458 c 0.51209,-2.56002 1.1177,-5.95058 1.34581,-7.53458 l 0.41474,-2.88 -0.0192,-8.96 -0.0192,-8.96 -0.67447,-4.32402 c -0.37096,-2.37821 -1.05923,-6.05021 -1.52948,-8.16 l -0.85501,-3.83598 -1.73134,-5.2614 c -0.95223,-2.89377 -1.73133,-5.30577 -1.73133,-5.36 0,-0.0542 1.05352,-0.0986 2.34116,-0.0986 h 2.34116 l 0.92351,-1.9322 0.9235,-1.93219 0.4006,0.76456 c 0.78145,1.49146 3.24242,9.08491 4.3933,13.55577 l 1.16763,4.53593 0.78072,4.98631 0.78072,4.9863 0.36043,5.35776 0.36042,5.35776 -0.20146,4 c -1.25094,24.83721 -9.79334,46.48298 -25.76947,65.29783 l -3.03777,3.57754 -3.73716,3.60307 c -9.1722,8.8431 -20.13791,16.19556 -31.78729,21.31325 l -4.48,1.96811 -4.64,1.52956 c -10.31686,3.40092 -18.85542,4.87663 -30.24,5.22634 l -4.8,0.14744 z"
       id="path1076914" />
  </g>
</svg>
